HIERARCHY
ROOT root
{
	OFFSET 0.000000 0.000000 0.000000
	CHANNELS 6 Xposition Yposition Zposition Zrotation Yrotation Xrotation
	JOINT lhip
	{
		OFFSET 0.058581 -0.082280 -0.017664
		CHANNELS 3 Zrotation Yrotation Xrotation
		JOINT lknee
		{
			OFFSET 0.043451 -0.386469 0.008037
			CHANNELS 3 Zrotation Yrotation Xrotation
			JOINT lankle
			{
				OFFSET -0.014790 -0.426874 -0.037428
				CHANNELS 3 Zrotation Yrotation Xrotation
				JOINT ltoe
				{
					OFFSET 0.041054 -0.060286 0.122042
					CHANNELS 3 Zrotation Yrotation Xrotation
					End Site
					{
						OFFSET 0.000000 0.000000 0.000000
					}
				}
			}
		}
	}
	JOINT rhip
	{
		OFFSET -0.060310 -0.090513 -0.013543
		CHANNELS 3 Zrotation Yrotation Xrotation
		JOINT rknee
		{
			OFFSET -0.043257 -0.383688 -0.004843
			CHANNELS 3 Zrotation Yrotation Xrotation
			JOINT rankle
			{
				OFFSET 0.019056 -0.420046 -0.034562
				CHANNELS 3 Zrotation Yrotation Xrotation
				JOINT rtoe
				{
					OFFSET -0.034840 -0.062106 0.130323
					CHANNELS 3 Zrotation Yrotation Xrotation
					End Site
					{
						OFFSET 0.000000 0.000000 0.000000
					}
				}
			}
		}
	}
	JOINT lowerback
	{
		OFFSET 0.004439 0.124404 -0.038385
		CHANNELS 3 Zrotation Yrotation Xrotation
		JOINT upperback
		{
			OFFSET 0.004488 0.137956 0.026820
			CHANNELS 3 Zrotation Yrotation Xrotation
			JOINT chest
			{
				OFFSET -0.002265 0.056032 0.002855
				CHANNELS 3 Zrotation Yrotation Xrotation
				JOINT lowerneck
				{
					OFFSET -0.013390 0.211636 -0.033468
					CHANNELS 3 Zrotation Yrotation Xrotation
					JOINT upperneck
					{
						OFFSET 0.010113 0.088937 0.050410
						CHANNELS 3 Zrotation Yrotation Xrotation
						End Site
						{
							OFFSET 0.000000 0.000000 0.000000
						}
					}
				}
				JOINT lclavicle
				{
					OFFSET 0.071702 0.114000 -0.018898
					CHANNELS 3 Zrotation Yrotation Xrotation
					JOINT lshoulder
					{
						OFFSET 0.122921 0.045205 -0.019046
						CHANNELS 3 Zrotation Yrotation Xrotation
						JOINT lelbow
						{
							OFFSET 0.255332 -0.015649 -0.022946
							CHANNELS 3 Zrotation Yrotation Xrotation
							JOINT lwrist
							{
								OFFSET 0.265709 0.012698 -0.007375
								CHANNELS 3 Zrotation Yrotation Xrotation
								End Site
								{
									OFFSET 0.000000 0.000000 0.000000
								}
							}
						}
					}
				}
				JOINT rclavicle
				{
					OFFSET -0.082954 0.112472 -0.023707
					CHANNELS 3 Zrotation Yrotation Xrotation
					JOINT rshoulder
					{
						OFFSET -0.113228 0.046853 -0.008472
						CHANNELS 3 Zrotation Yrotation Xrotation
						JOINT relbow
						{
							OFFSET -0.260127 -0.014369 -0.031269
							CHANNELS 3 Zrotation Yrotation Xrotation
							JOINT rwrist
							{
								OFFSET -0.269108 0.006794 -0.006027
								CHANNELS 3 Zrotation Yrotation Xrotation
								End Site
								{
									OFFSET 0.000000 0.000000 0.000000
								}
							}
						}
					}
				}
			}
		}
	}
}
MOTION
Frames: 8
Frame Time: 0.033333
0.221597 0.862252 0.974346 2.470162 0.664593 90.495470 11.866021 -0.164067 0.500551 -1.911417 -2.630446 7.396775 -0.564966 5.621684 -13.163645 0.000000 -0.000000 0.000000 -9.200941 -4.367835 -1.505836 1.178592 -2.962154 10.691864 7.083680 4.548977 -11.343515 0.000000 -0.000000 0.000000 -4.860257 4.102359 0.718936 2.100312 -3.826673 7.643250 0.325598 1.592592 -2.674078 -0.268336 11.258140 5.009137 16.236985 -2.677410 -6.466049 -16.683251 2.116312 7.504738 -68.849839 -2.984842 12.541746 -157.292398 -78.363310 -171.277139 38.270408 -3.923765 -12.342594 21.223996 -3.769479 7.340092 73.269289 1.027328 3.740626 -114.068100 67.442628 -87.158271 -20.911247 0.903362 -6.955789 
0.221704 0.862699 0.974316 2.509032 0.675781 90.579092 11.843716 -0.565784 0.464626 -1.949131 -2.407373 7.204855 0.002126 5.764450 -12.998448 0.000000 -0.000000 0.000000 -9.235308 -4.104926 -1.666866 1.334967 -2.987591 10.688235 7.021268 4.368054 -11.380213 0.000000 -0.000000 0.000000 -5.205863 4.212324 0.390655 2.465490 -3.865199 7.764648 0.501948 1.707940 -2.532942 -0.031061 11.156401 4.535329 15.826482 -3.035842 -5.917615 -15.805312 1.804492 7.628401 -71.025391 -3.826361 14.745372 -162.026757 -80.989892 -165.715559 43.180875 -4.711091 -12.870135 21.107164 -4.184402 7.016209 72.637618 0.330531 4.026472 -115.290011 66.904579 -86.428159 -17.932911 2.349628 -9.267746 
0.221761 0.862652 0.974488 2.500070 0.750881 90.426357 11.874581 -0.410683 0.626322 -1.929284 -2.906868 7.245961 -0.037657 5.874640 -12.969115 0.000000 -0.000000 0.000000 -9.172750 -4.131716 -1.478636 1.379540 -2.698531 10.631356 6.767361 4.133739 -11.396363 0.000000 -0.000000 0.000000 -4.952576 4.107301 0.637203 2.371242 -3.717644 7.774072 0.393333 1.519564 -2.763744 0.044125 10.896123 4.226551 15.570038 -2.953757 -5.115941 -16.261107 2.193722 7.783336 -71.530149 -3.615890 13.558787 -164.764389 -80.617964 -157.626479 40.127296 -2.756507 -16.547574 21.001846 -4.233045 7.444866 73.164019 0.701527 3.621490 -116.112464 67.079406 -84.747725 -17.148478 1.841854 -11.302388 
0.221805 0.863094 0.974739 2.447745 0.762364 90.460784 11.832343 -0.510856 0.595540 -1.915019 -3.109211 7.277808 0.170169 5.850343 -12.870524 0.000000 -0.000000 0.000000 -9.148136 -4.069646 -1.578021 1.422657 -2.421527 10.645207 6.791404 3.889210 -11.460882 0.000000 -0.000000 0.000000 -4.994167 4.132224 0.547763 2.441251 -3.609308 7.480494 0.457972 1.554980 -2.439811 0.095887 10.495586 3.872120 15.247481 -3.210009 -4.773704 -16.244749 2.373216 7.586874 -71.603177 -3.801346 13.701304 -163.352453 -80.923654 -158.942783 41.057735 -2.731442 -16.362614 20.853568 -4.416888 7.223202 73.393803 0.597841 3.896971 -116.285603 67.103545 -84.626935 -17.756691 1.685373 -11.129283 
0.221808 0.863177 0.974794 2.436373 0.760804 90.449171 11.834770 -0.449856 0.592707 -1.906486 -3.064295 7.288212 0.189587 5.909341 -12.906798 0.000000 -0.000000 0.000000 -9.156897 -4.094959 -1.583516 1.433466 -2.375570 10.665360 6.809485 3.898787 -11.459204 0.000000 -0.000000 0.000000 -5.004111 4.132609 0.598966 2.456550 -3.595612 7.309434 0.475425 1.570902 -2.346218 0.154084 10.394670 3.717007 15.141613 -3.356558 -4.610242 -16.193574 2.423927 7.534978 -71.590417 -3.800781 13.727969 -163.074487 -80.975276 -159.260325 41.203137 -2.738359 -16.290606 20.776284 -4.473029 7.136332 73.455846 0.509290 3.963766 -116.372116 67.186585 -84.693793 -17.849096 1.682534 -11.105045 
0.221770 0.863541 0.974911 2.397199 0.762431 90.388563 11.843660 -0.416724 0.650429 -1.955558 -3.105798 7.271665 0.178095 5.897419 -12.824920 0.000000 -0.000000 0.000000 -9.159526 -4.041994 -1.554590 1.456703 -2.330355 10.654209 6.814901 3.865307 -11.403044 0.000000 -0.000000 0.000000 -5.041470 4.118751 0.689589 2.480696 -3.559983 7.266338 0.501195 1.581187 -2.307068 0.178709 10.391317 3.422241 14.915685 -3.405455 -4.433101 -16.147318 2.514259 7.437137 -71.619439 -3.816523 13.804825 -163.507776 -80.999535 -158.907466 41.328172 -2.704261 -16.432268 20.797194 -4.515908 6.996753 73.369470 0.458355 4.092306 -116.459411 67.179446 -84.830009 -17.834499 1.649298 -11.096329 
0.221491 0.864007 0.974934 2.371393 0.793027 90.374303 11.914305 -0.360450 0.626043 -1.983251 -3.138110 7.282313 0.218349 5.844939 -12.771062 0.000000 -0.000000 0.000000 -9.114143 -3.992871 -1.588870 1.480256 -2.273941 10.682683 6.718070 3.788912 -11.441507 0.000000 -0.000000 0.000000 -5.068832 4.108040 0.784702 2.527945 -3.508423 7.129398 0.557133 1.552888 -2.296406 0.249448 10.221807 3.197061 14.773738 -3.487328 -4.165840 -16.123265 2.580642 7.440091 -71.684338 -3.830231 13.758428 -163.847375 -81.021299 -158.463355 41.229934 -2.710239 -16.414472 20.736756 -4.513166 6.983978 73.373310 0.447111 4.134178 -116.615832 67.162379 -84.944406 -17.758412 1.602478 -11.119831 
0.221482 0.864401 0.975013 2.344579 0.784802 90.345936 11.909071 -0.333463 0.659012 -1.962359 -3.152480 7.231693 0.223820 5.943131 -12.791090 0.000000 -0.000000 0.000000 -9.101689 -3.944738 -1.590804 1.482313 -2.110467 10.676245 6.726554 3.683800 -11.444115 0.000000 -0.000000 0.000000 -5.072687 4.096772 0.812621 2.558047 -3.474132 7.174055 0.605143 1.499273 -2.294985 0.201921 10.007737 2.924021 14.525526 -3.486743 -3.935326 -16.185193 2.634601 7.435423 -71.675285 -3.862406 13.653308 -164.080522 -81.019514 -158.100506 41.346443 -2.702790 -16.359859 20.693687 -4.466346 6.954164 73.381681 0.491474 4.187186 -116.692601 67.105091 -85.020210 -17.809214 1.630515 -11.194835 
